<?xml version="1.0" encoding="utf-8"?>
<!-- Generator: Adobe Illustrator 16.0.0, SVG Export Plug-In . SVG Version: 6.00 Build 0)  -->
<!DOCTYPE svg PUBLIC "-//W3C//DTD SVG 1.1//EN" "http://www.w3.org/Graphics/SVG/1.1/DTD/svg11.dtd">
<svg version="1.1" xmlns="http://www.w3.org/2000/svg" xmlns:xlink="http://www.w3.org/1999/xlink" x="0px" y="0px" width="312px"
	 height="100px" viewBox="0 0 312 100" enable-background="new 0 0 312 100" xml:space="preserve">
<g>
	<path fill="#A78337" d="M46.056,20.817c0.457-0.571,0.617-1.592,0.617-1.592H19.258c0,0,0.339,1.131,0.625,1.592H46.056z"/>
	<path fill="#A78337" d="M44.463,23.143c0.51-0.454,1.029-1.363,1.029-1.363H20.389c0,0,0.282,0.682,0.911,1.363H44.463z"/>
	<path fill="#A78337" d="M42.483,25.247c0.621-0.339,1.131-1.025,1.131-1.025H22.153c0,0,0.511,0.571,1.016,1.025H42.483z"/>
	<path fill="#A78337" d="M39.977,27.234c0.621-0.233,1.307-0.799,1.307-0.799H24.542c0,0,0,0.123,1.188,0.799H39.977z"/>
	<path fill="#A78337" d="M27.656,28.479c0,0,1.763,1.03,5.225,1.03c3.466,0,5.674-1.03,5.674-1.03H27.656z"/>
	<path fill="#003974" d="M27.374,30.81c0,0,2.103,0.11,3.344,1.075c1.196,1.027,2.106,2.726,2.106,2.726s0.739-1.637,1.935-2.493
		c1.188-0.916,3.123-1.308,3.123-1.308h21.633l4.258,6.303H44.349c0,0-1.36,0.055-3.405,1.255c-1.082,0.615-1.882,1.696-1.882,1.696
		s-0.159,0.512-0.392,0.79c-0.229,0.29-0.4,0.521-0.677,0.627c-0.29,0.123-0.229,0.055-0.229,0.055H27.656
		c0,0-0.409-0.161-0.621-0.51c-0.229-0.339-0.061-0.222-0.285-0.5c-0.171-0.282-0.572-1.028-2.103-2.048
		c-1.588-1.033-3.124-1.136-3.124-1.136H1.773l4.303-6.532H27.374z"/>
	<path fill="#003974" d="M12.094,39.722V71.97c0,0,0.115,2.85,2.502,6.704c2.384,3.861,5.842,5.625,5.842,5.625l2.73-4.258
		c0,0-2.379-1.425-4.2-4.152c-1.755-2.718-1.755-5.054-1.755-5.054V39.722H12.094z"/>
	<path fill="#003974" d="M48.664,39.611v31.109c0,0-0.396,3.127-1.874,5.34c-1.478,2.271-3.923,4.09-3.923,4.09l2.625,4.198
		c0,0,3.968-2.891,5.895-5.961c1.935-3.062,2.396-7.667,2.396-7.667V39.611H48.664z"/>
	<path fill="#003974" d="M3.986,39.722v32.367c0,0,0.335,5.001,3.454,10.222c3.135,5.217,8.802,8.855,8.802,8.855l2.674-4.255
		c0,0-3.637-1.931-6.528-6.368c-2.964-4.482-3.123-8.573-3.123-8.573V39.722H3.986z"/>
	<path fill="#A78337" d="M27.374,43.128v34.183c0,0-0.126,0.117-0.167,0.62c-0.061,0.518-0.4,0.861-0.4,0.861l-11.41,18.905h34.978
		l-11.418-19.31l-0.338-0.857l-0.115-0.902V43.189h-4.258v34.7c0,0,0,0.499,0.171,0.903c0.106,0.399,0.343,1.017,0.343,1.017
		l7.034,11.581H23.965l6.924-11.524c0,0,0.229-0.396,0.4-0.964c0.118-0.514,0.167-1.013,0.167-1.013V43.128H27.374z"/>
	<path fill="#003974" d="M56.556,39.611V71.41c0,0-0.049,4.087-3.062,8.799c-3.008,4.718-6.475,6.702-6.475,6.702l2.56,4.312
		c0,0,5.217-3.294,8.516-8.516c3.237-5.226,3.633-11.297,3.633-11.297V39.611H56.556z"/>
	<path fill="#A78337" d="M19.083,18.315c0,0-1.755-9.59,5.283-14.367c0,0,3.18-2.948,8.34-2.948c5.515,0,8.688,2.892,8.688,2.892
		c7.667,5.616,5.397,14.423,5.397,14.423H19.083z"/>
</g>
<g>
	<path fill="#003974" d="M94.091,13.608v9.311h-1.992v-0.986H81.552v0.986h-1.995v-9.202c-0.355,0.157-0.963,0.38-1.82,0.666
		l-1.031-1.909c2.602-0.629,4.868-1.752,6.797-3.368h-6.626v-1.78h8.812V5.586c-3.217,0.085-5.524,0.131-6.924,0.131l-0.708-1.974
		c0.814,0.029,1.823,0.042,3.023,0.042c5.703,0,10.018-0.328,12.948-0.988l0.922,1.76c-1.945,0.4-4.36,0.723-7.247,0.966v1.802
		h9.048v1.78h-6.905c1.629,1.572,3.988,2.666,7.077,3.282l-0.945,1.952c-0.285-0.131-0.6-0.245-0.943-0.343
		C94.693,13.894,94.377,13.767,94.091,13.608z M80.791,13.117h4.891V9.169C84.437,10.942,82.807,12.256,80.791,13.117z
		 M92.095,14.917H81.542v1.63h10.553V14.917z M81.542,20.15h10.553v-1.889H81.542V20.15z M87.698,9.148v3.968h5.297
		C90.807,12.256,89.041,10.934,87.698,9.148z"/>
	<path fill="#003974" d="M108.698,16.257c-0.585,2.319-1.494,4.449-2.723,6.393l-1.717-1.759c1.26-1.786,2.117-3.695,2.574-5.725
		L108.698,16.257z M107.369,12.783c-1.159-0.985-2.159-1.757-3.002-2.314l1.286-1.61c1.017,0.544,2.074,1.238,3.174,2.079
		L107.369,12.783z M109.466,5.127h2.854V2.896h1.959v2.232h3.911V2.896h1.935v2.232h3.539v1.694h-3.539v2.209h3.86v1.8h-4.097
		c0.571,1.16,2.017,2.311,4.333,3.454l-0.923,1.909c-1.315-0.787-2.403-1.566-3.259-2.338v4.397h-6.906v1.372
		c0,0.5,0.251,0.751,0.751,0.751h6.369c0.6,0,0.957-0.222,1.071-0.666c0.115-0.457,0.223-1.25,0.323-2.38l2.06,0.751
		c-0.229,1.987-0.537,3.181-0.923,3.581c-0.372,0.388-1.108,0.58-2.208,0.58h-6.948c-0.916,0-1.56-0.171-1.931-0.514
		c-0.356-0.357-0.535-1.022-0.535-1.994v-4.805c-0.359,0.299-1.016,0.751-1.973,1.352l-1.224-1.803
		c2.374-1.071,3.875-2.279,4.503-3.625h-3.431v-1.8h3.282V6.907h-2.854V5.749l-1.309,1.629c-1.172-1.071-2.237-1.908-3.195-2.508
		l1.415-1.588c1.217,0.773,2.246,1.479,3.089,2.124V5.127z M113.117,14.457v2.103h4.934v-2.103H113.117z M114.748,10.832
		c-0.316,0.731-0.736,1.375-1.266,1.931h5.468c-0.471-0.528-0.908-1.171-1.308-1.931H114.748z M114.275,6.929v2.102h3.905V6.929
		H114.275z"/>
	<path fill="#003974" d="M135.733,5.81c-0.756,0.144-1.864,0.266-3.325,0.364l-0.449-1.8c3.202-0.156,5.954-0.671,8.256-1.544
		l0.729,1.76c-1.029,0.356-2.109,0.65-3.238,0.879v3.025h3.259v1.844h-3.259v0.193c1.6,1.486,2.809,2.674,3.625,3.56l-1.201,1.845
		c-0.431-0.6-0.857-1.143-1.288-1.63c-0.373-0.443-0.751-0.922-1.136-1.437v9.953l-1.974,0.085V14.09
		c-0.542,1.372-1.516,2.975-2.917,4.805l-1.202-1.931c1.802-2.046,3.153-4.254,4.053-6.627h-3.925V8.493h3.99V5.81z M140.696,18.102
		v-1.995l7.186-1.074V2.7h1.993v12.099l1.932-0.323v1.953l-1.932,0.321v6.156h-1.993v-5.898L140.696,18.102z M145.365,13.747
		c-1.473-1.229-2.774-2.18-3.903-2.854l1.266-1.437c1.071,0.559,2.394,1.437,3.969,2.64L145.365,13.747z M145.75,8.534
		c-1.585-1.271-2.874-2.208-3.86-2.809l1.287-1.416c0.931,0.517,2.238,1.388,3.925,2.616L145.75,8.534z"/>
	<path fill="#003974" d="M167.113,9.051h-2.531v3.793c1.144-0.372,1.98-0.686,2.506-0.943v2.102
		c-0.44,0.244-1.277,0.572-2.506,0.987v5.255c0,1.015-0.146,1.686-0.433,2.017c-0.302,0.343-0.979,0.514-2.041,0.514h-1.698
		l-0.49-2.168l1.862,0.066c0.474,0,0.71-0.237,0.71-0.708v-4.375c-1.217,0.314-2.173,0.558-2.874,0.729l-0.517-2.318
		c1.243-0.156,2.373-0.371,3.391-0.642V9.051h-3.175V7.096h3.175V2.7h2.11v4.396h2.531V5.725h4.609V2.7h2.126v3.025h5.063v1.952
		h-5.063v2.874h4.332v1.78c-0.188,0.774-0.657,1.78-1.412,3.025c-0.747,1.245-1.527,2.225-2.343,2.939
		c1.433,1.172,3.044,2.009,4.85,2.509l-1.095,2.017c-1.887-0.615-3.658-1.681-5.319-3.196c-2.258,1.728-4.417,2.81-6.479,3.239
		l-1.176-1.951c2.058-0.459,4.114-1.38,6.173-2.768c-1.099-1.115-2.181-2.638-3.233-4.568l1.78-0.708
		c0.983,1.745,1.967,3.111,2.955,4.096c1.462-1.157,2.498-2.638,3.111-4.439h-8.517V10.55h4.246V7.676h-4.609L167.113,9.051z"/>
	<path fill="#003974" d="M199.393,10.369c0.331,1.745,1.103,3.573,2.315,5.491c1.217,1.916,2.891,3.574,5.021,4.977l-1.648,1.973
		c-3.862-2.531-6.507-6.679-7.937-12.44h-0.343c-0.96,5.162-3.841,9.321-8.646,12.484l-1.629-2.04
		c2.028-1.157,3.776-2.68,5.233-4.568c1.441-1.886,2.339-3.837,2.683-5.854h-7.402V8.117h7.766c0.184-1.302,0.277-3.095,0.277-5.384
		h2.254c0,2.46-0.058,4.254-0.172,5.384h9.092v2.274L199.393,10.369z"/>
	<path fill="#003974" d="M229.99,14.37v1.564c-1.257,0.672-2.809,1.294-4.653,1.866h8.9v1.737h-8.9v0.879
		c0,1.53-0.653,2.295-1.952,2.295h-3.15l-0.495-1.736l2.936,0.085c0.433,0,0.646-0.215,0.646-0.644v-0.879h-9.309v-1.737h9.309
		v-0.923c0.988-0.171,2.237-0.477,3.756-0.922h-9.03V14.37H229.99z M231.886,13.447h-15.493V16.6h-1.906v-4.847h1.069l-0.237-8.237
		c1.861-0.057,3.438-0.266,4.72-0.622l0.947,1.585c-0.801,0.273-2.074,0.465-3.821,0.58l0.065,1.094h3.347v1.46h-3.282l0.021,1.222
		h3.262v1.48h-3.217l0.041,1.437h13.432l0.024-1.437h-3.005v-1.48h3.07l0.041-1.222h-3.111v-1.46h3.151l0.025-1.18h-3.414V3.279h5.3
		l-0.237,8.474h1.144V16.6h-1.935V13.447z M224.455,5.725c-0.711,0.457-1.551,0.895-2.507,1.31l-1.095-1.438
		c1.201-0.329,1.989-0.623,2.36-0.88c-0.358-0.286-0.845-0.62-1.462-1.008l1.16-1.008c0.56,0.359,1.127,0.751,1.697,1.18
		c0.613-0.414,1.05-0.8,1.308-1.157l1.068,0.965c-0.31,0.429-0.734,0.815-1.265,1.158c0.285,0.257,0.669,0.637,1.14,1.136
		l-1.311,0.966C224.978,6.133,224.614,5.725,224.455,5.725z M224.586,10.122c-0.657,0.457-1.494,0.857-2.507,1.2l-0.923-1.437
		c0.984-0.212,1.73-0.471,2.229-0.772c-0.285-0.213-0.767-0.556-1.437-1.028l1.114-0.943c0.274,0.184,0.523,0.343,0.752,0.472
		c0.273,0.185,0.571,0.406,0.901,0.663c0.425-0.269,0.923-0.714,1.479-1.328l1.135,0.965c-0.526,0.529-1.013,0.958-1.453,1.286
		c0.412,0.359,0.82,0.737,1.221,1.138l-1.376,1.05C225.067,10.544,224.684,10.122,224.586,10.122z"/>
</g>
<g>
	<path fill="#003974" d="M83.027,47.019h-1.965V33.053h-3.744v-1.798h9.451v1.798h-3.742V47.019z"/>
	<path fill="#003974" d="M97.829,37.611v-6.357h1.966v15.764h-1.966V39.45h-7.505v7.569h-1.964V31.254h1.964v6.357H97.829z"/>
	<path fill="#003974" d="M102.848,31.254h8.467v1.798h-6.503v4.412h6.315v1.797h-6.315v5.959h6.503v1.798h-8.467V31.254z"/>
	<path fill="#003974" d="M129.504,37.611v-6.357h1.965v15.764h-1.965V39.45h-7.505v7.569h-1.965V31.254h1.965v6.357H129.504z"/>
	<path fill="#003974" d="M149.931,39.135c0,4.685-3.7,8.218-8.259,8.218c-4.559,0-8.259-3.533-8.259-8.218
		c0-4.515,3.741-8.215,8.259-8.215C146.187,30.92,149.931,34.62,149.931,39.135z M147.964,39.135c0-3.47-2.591-6.376-6.292-6.376
		c-3.702,0-6.292,2.906-6.292,6.376c0,3.597,2.884,6.376,6.292,6.376C145.079,45.512,147.964,42.732,147.964,39.135z"/>
	<path fill="#003974" d="M151.854,30.501l11.83,12.398V31.254h1.969v16.413l-11.834-12.398v11.75h-1.965V30.501z"/>
	<path fill="#003974" d="M183.026,39.074v0.627c0,4.328-3.054,7.652-7.463,7.652c-4.412,0-7.969-3.805-7.969-8.174
		c0-4.538,3.643-8.259,8.173-8.259c2.45,0,4.875,1.107,6.422,3.054l-1.38,1.315c-1.131-1.547-3.032-2.572-4.956-2.572
		c-3.531,0-6.29,2.864-6.29,6.397c0,3.306,2.718,6.441,6.123,6.441c2.449,0,5.078-2.114,5.164-4.683h-4.078v-1.798H183.026z"/>
	<path fill="#003974" d="M200.083,31.254h2.572l-7.087,7.087l7.213,8.677h-2.653l-5.94-7.338l-0.792,0.752v6.585h-1.967V31.254
		h1.967v6.835L200.083,31.254z"/>
	<path fill="#003974" d="M219.589,39.135c0,4.685-3.698,8.218-8.255,8.218s-8.259-3.533-8.259-8.218
		c0-4.515,3.744-8.215,8.259-8.215S219.589,34.62,219.589,39.135z M217.629,39.135c0-3.47-2.596-6.376-6.295-6.376
		s-6.295,2.906-6.295,6.376c0,3.597,2.886,6.376,6.295,6.376C214.739,45.512,217.629,42.732,217.629,39.135z"/>
	<path fill="#003974" d="M221.516,30.501l11.831,12.398V31.254h1.967v16.413l-11.834-12.398v11.75h-1.964V30.501z"/>
	<path fill="#003974" d="M252.689,39.074v0.627c0,4.328-3.055,7.652-7.463,7.652c-4.417,0-7.969-3.805-7.969-8.174
		c0-4.538,3.637-8.259,8.173-8.259c2.45,0,4.875,1.107,6.422,3.054l-1.381,1.315c-1.13-1.547-3.033-2.572-4.955-2.572
		c-3.531,0-6.292,2.864-6.292,6.397c0,3.306,2.72,6.441,6.124,6.441c2.445,0,5.079-2.114,5.164-4.683h-4.077v-1.798H252.689z"/>
	<path fill="#003974" d="M80.477,56.335v9.307c0,2.572,0.773,4.952,3.805,4.952s3.805-2.38,3.805-4.952v-9.307h1.966v9.977
		c0,3.47-2.153,6.124-5.771,6.124c-3.617,0-5.771-2.654-5.771-6.124v-9.977H80.477z"/>
	<path fill="#003974" d="M92.791,55.583l11.833,12.399V56.335h1.965V72.75L94.756,60.352v11.749h-1.966V55.583z"/>
	<path fill="#003974" d="M111.503,72.101h-1.966V56.335h1.966V72.101z"/>
	<path fill="#003974" d="M119.865,68.002l4.683-11.667h2.153l-6.836,16.603l-6.858-16.603h2.154L119.865,68.002z"/>
	<path fill="#003974" d="M128.249,56.335h8.467v1.8h-6.501v4.413h6.314v1.796h-6.314v5.961h6.501v1.796h-8.467V56.335z"/>
	<path fill="#003974" d="M149.156,72.101h-2.384l-4.641-6.67h-0.815v6.67h-1.966V56.335h2.384c1.402,0,2.905,0.024,4.161,0.734
		c1.316,0.771,2.068,2.257,2.068,3.764c0,2.254-1.505,4.14-3.783,4.409L149.156,72.101z M141.316,63.802h0.628
		c2.005,0,4.182-0.381,4.182-2.888c0-2.465-2.344-2.824-4.286-2.824h-0.523V63.802z"/>
	<path fill="#003974" d="M157.916,59.326c-0.584-0.983-1.338-1.485-2.53-1.485c-1.255,0-2.634,0.857-2.634,2.236
		c0,1.238,1.213,1.883,2.196,2.259l1.129,0.44c2.235,0.878,3.908,2.11,3.908,4.743c0,2.867-2.215,4.916-5.037,4.916
		c-2.552,0-4.537-1.883-4.872-4.409l1.985-0.42c-0.021,1.734,1.359,2.987,3.054,2.987s2.906-1.42,2.906-3.074
		c0-1.689-1.359-2.425-2.719-2.987l-1.087-0.458c-1.797-0.775-3.428-1.8-3.428-3.997c0-2.551,2.258-4.078,4.642-4.078
		c1.755,0,3.198,0.857,4.055,2.385L157.916,59.326z"/>
	<path fill="#003974" d="M164.251,72.101h-1.963V56.335h1.963V72.101z"/>
	<path fill="#003974" d="M171.652,72.101h-1.967V58.135h-3.74v-1.8h9.447v1.8h-3.74V72.101z"/>
	<path fill="#003974" d="M175.52,56.335h2.258l3.87,6.736l3.865-6.736h2.257l-5.143,8.907v6.858h-1.964v-6.858L175.52,56.335z"/>
	<path fill="#003974" d="M210.999,64.217c0,4.684-3.698,8.219-8.258,8.219c-4.561,0-8.26-3.535-8.26-8.219
		c0-4.515,3.744-8.218,8.26-8.218C207.26,55.999,210.999,59.702,210.999,64.217z M209.031,64.217c0-3.469-2.588-6.376-6.29-6.376
		c-3.703,0-6.292,2.907-6.292,6.376c0,3.598,2.883,6.377,6.292,6.377C206.149,70.594,209.031,67.814,209.031,64.217z"/>
	<path fill="#003974" d="M215.057,58.135v4.43h5.476v1.8h-5.476v7.736h-1.967V56.335h7.634v1.8H215.057z"/>
	<path fill="#003974" d="M236.481,59.326c-0.58-0.983-1.335-1.485-2.526-1.485c-1.254,0-2.634,0.857-2.634,2.236
		c0,1.238,1.213,1.883,2.196,2.259l1.127,0.44c2.237,0.878,3.911,2.11,3.911,4.743c0,2.867-2.217,4.916-5.038,4.916
		c-2.555,0-4.539-1.883-4.874-4.409l1.988-0.42c-0.021,1.734,1.359,2.987,3.049,2.987c1.699,0,2.907-1.42,2.907-3.074
		c0-1.689-1.355-2.425-2.719-2.987l-1.087-0.458c-1.795-0.775-3.428-1.8-3.428-3.997c0-2.551,2.262-4.078,4.646-4.078
		c1.756,0,3.196,0.857,4.054,2.385L236.481,59.326z"/>
	<path fill="#003974" d="M252.395,59.347c-1.127-1.004-2.677-1.547-4.16-1.547c-3.531,0-6.233,2.948-6.233,6.438
		c0,3.455,2.679,6.401,6.189,6.401c1.551,0,3.033-0.587,4.204-1.633v2.319c-1.212,0.71-2.76,1.11-4.14,1.11
		c-4.494,0-8.214-3.576-8.214-8.132c0-4.662,3.74-8.305,8.382-8.305c1.38,0,2.78,0.336,3.972,1.07V59.347z"/>
	<path fill="#003974" d="M256.849,72.101h-1.963V56.335h1.963V72.101z"/>
	<path fill="#003974" d="M260.005,56.335h8.467v1.8h-6.499v4.413h6.311v1.796h-6.311v5.961h6.499v1.796h-8.467V56.335z"/>
	<path fill="#003974" d="M270.921,55.583l11.831,12.399V56.335h1.968V72.75l-11.835-12.398v11.749h-1.964V55.583z"/>
	<path fill="#003974" d="M299.204,59.347c-1.127-1.004-2.675-1.547-4.156-1.547c-3.535,0-6.233,2.948-6.233,6.438
		c0,3.455,2.674,6.401,6.188,6.401c1.547,0,3.033-0.587,4.201-1.633v2.319c-1.209,0.71-2.759,1.11-4.14,1.11
		c-4.491,0-8.214-3.576-8.214-8.132c0-4.662,3.739-8.305,8.386-8.305c1.38,0,2.776,0.336,3.968,1.07V59.347z"/>
	<path fill="#003974" d="M301.756,56.335h8.471v1.8h-6.507v4.413h6.318v1.796h-6.318v5.961h6.507v1.796h-8.471V56.335z"/>
	<path fill="#003974" d="M81.02,93.231l-1.796,3.952H77.11l7.526-16.436l7.528,16.436h-2.113l-1.798-3.952H81.02z M84.636,85.059
		l-2.8,6.377h5.603L84.636,85.059z"/>
	<path fill="#003974" d="M93.501,80.665l11.833,12.398V81.417h1.966v16.415L95.467,85.434v11.75h-1.966V80.665z"/>
	<path fill="#003974" d="M110.143,81.417h3.262c4.83,0,8.845,2.556,8.845,7.802c0,5.372-3.931,7.965-8.908,7.965h-3.199V81.417z
		 M112.109,95.387h0.69c4.015,0,7.485-1.506,7.485-6.087c0-4.601-3.47-6.083-7.485-6.083h-0.69V95.387z"/>
	<path fill="#003974" d="M134.917,97.184h-1.962V83.217h-3.745v-1.8h9.452v1.8h-3.745V97.184z"/>
	<path fill="#003974" d="M140.417,81.417h8.468v1.8h-6.503v4.414h6.314v1.796h-6.314v5.96h6.503v1.797h-8.468V81.417z"/>
	<path fill="#003974" d="M162.998,84.43c-1.131-1.005-2.679-1.547-4.162-1.547c-3.533,0-6.229,2.947-6.229,6.438
		c0,3.453,2.675,6.401,6.187,6.401c1.546,0,3.032-0.589,4.204-1.633v2.318c-1.216,0.71-2.759,1.11-4.143,1.11
		c-4.492,0-8.215-3.576-8.215-8.133c0-4.661,3.741-8.303,8.383-8.303c1.378,0,2.782,0.335,3.975,1.07V84.43z"/>
	<path fill="#003974" d="M174.854,87.776v-6.359h1.96v15.767h-1.96v-7.569h-7.507v7.569h-1.964V81.417h1.964v6.359H174.854z"/>
	<path fill="#003974" d="M179.679,80.665l11.836,12.398V81.417h1.963v16.415l-11.83-12.398v11.75h-1.969V80.665z"/>
	<path fill="#003974" d="M211.897,89.3c0,4.683-3.698,8.218-8.259,8.218c-4.556,0-8.259-3.535-8.259-8.218
		c0-4.516,3.743-8.218,8.259-8.218C208.158,81.082,211.897,84.784,211.897,89.3z M209.935,89.3c0-3.47-2.593-6.376-6.296-6.376
		c-3.698,0-6.291,2.906-6.291,6.376c0,3.597,2.882,6.377,6.291,6.377C207.047,95.677,209.935,92.896,209.935,89.3z"/>
	<path fill="#003974" d="M215.976,95.387h4.789v1.797h-6.753V81.417h1.964V95.387z"/>
	<path fill="#003974" d="M237.674,89.3c0,4.683-3.698,8.218-8.255,8.218c-4.556,0-8.258-3.535-8.258-8.218
		c0-4.516,3.743-8.218,8.258-8.218C233.935,81.082,237.674,84.784,237.674,89.3z M235.71,89.3c0-3.47-2.592-6.376-6.291-6.376
		c-3.703,0-6.295,2.906-6.295,6.376c0,3.597,2.887,6.377,6.295,6.377C232.824,95.677,235.71,92.896,235.71,89.3z"/>
	<path fill="#003974" d="M254.15,89.239v0.628c0,4.327-3.054,7.65-7.463,7.65s-7.969-3.805-7.969-8.173
		c0-4.54,3.642-8.263,8.178-8.263c2.445,0,4.87,1.111,6.422,3.054l-1.381,1.318c-1.131-1.548-3.037-2.571-4.955-2.571
		c-3.536,0-6.295,2.861-6.295,6.396c0,3.307,2.718,6.442,6.122,6.442c2.45,0,5.084-2.115,5.169-4.687H247.9v-1.796H254.15z"/>
	<path fill="#003974" d="M254.673,81.417h2.262l3.862,6.735l3.87-6.735h2.262l-5.145,8.908v6.858h-1.967v-6.858L254.673,81.417z"/>
</g>
</svg>
